<!-- Sprite SVG com ícones do ISPMedia -->
<svg style="display: none;" xmlns="http://www.w3.org/2000/svg">
    <defs>
        <!-- Ícones de Mídia -->
        <symbol id="icon-play" viewBox="0 0 24 24" fill="none" stroke="currentColor" stroke-width="2">
            <polygon points="5,3 19,12 5,21"/>
        </symbol>
        
        <symbol id="icon-pause" viewBox="0 0 24 24" fill="none" stroke="currentColor" stroke-width="2">
            <rect x="6" y="4" width="4" height="16"/>
            <rect x="14" y="4" width="4" height="16"/>
        </symbol>
        
        <symbol id="icon-stop" viewBox="0 0 24 24" fill="none" stroke="currentColor" stroke-width="2">
            <rect x="6" y="6" width="12" height="12"/>
        </symbol>
        
        <symbol id="icon-volume" viewBox="0 0 24 24" fill="none" stroke="currentColor" stroke-width="2">
            <polygon points="11,5 6,9 2,9 2,15 6,15 11,19"/>
            <path d="M15.54 8.46a5 5 0 0 1 0 7.07"/>
            <path d="M19.07 4.93a10 10 0 0 1 0 14.14"/>
        </symbol>
        
        <symbol id="icon-volume-mute" viewBox="0 0 24 24" fill="none" stroke="currentColor" stroke-width="2">
            <polygon points="11,5 6,9 2,9 2,15 6,15 11,19"/>
            <line x1="23" y1="9" x2="17" y2="15"/>
            <line x1="17" y1="9" x2="23" y2="15"/>
        </symbol>
        
        <symbol id="icon-fullscreen" viewBox="0 0 24 24" fill="none" stroke="currentColor" stroke-width="2">
            <path d="M8 3H5a2 2 0 0 0-2 2v3"/>
            <path d="M21 8V5a2 2 0 0 0-2-2h-3"/>
            <path d="M3 16v3a2 2 0 0 0 2 2h3"/>
            <path d="M16 21h3a2 2 0 0 0 2-2v-3"/>
        </symbol>
        
        <!-- Ícones de Navegação -->
        <symbol id="icon-home" viewBox="0 0 24 24" fill="none" stroke="currentColor" stroke-width="2">
            <path d="M3 9l9-7 9 7v11a2 2 0 0 1-2 2H5a2 2 0 0 1-2-2z"/>
            <polyline points="9,22 9,12 15,12 15,22"/>
        </symbol>
        
        <symbol id="icon-menu" viewBox="0 0 24 24" fill="none" stroke="currentColor" stroke-width="2">
            <line x1="3" y1="6" x2="21" y2="6"/>
            <line x1="3" y1="12" x2="21" y2="12"/>
            <line x1="3" y1="18" x2="21" y2="18"/>
        </symbol>
        
        <symbol id="icon-close" viewBox="0 0 24 24" fill="none" stroke="currentColor" stroke-width="2">
            <line x1="18" y1="6" x2="6" y2="18"/>
            <line x1="6" y1="6" x2="18" y2="18"/>
        </symbol>
        
        <symbol id="icon-back" viewBox="0 0 24 24" fill="none" stroke="currentColor" stroke-width="2">
            <line x1="19" y1="12" x2="5" y2="12"/>
            <polyline points="12,19 5,12 12,5"/>
        </symbol>
        
        <symbol id="icon-forward" viewBox="0 0 24 24" fill="none" stroke="currentColor" stroke-width="2">
            <line x1="5" y1="12" x2="19" y2="12"/>
            <polyline points="12,5 19,12 12,19"/>
        </symbol>
        
        <!-- Ícones de Ação -->
        <symbol id="icon-upload" viewBox="0 0 24 24" fill="none" stroke="currentColor" stroke-width="2">
            <path d="M21 15v4a2 2 0 0 1-2 2H5a2 2 0 0 1-2-2v-4"/>
            <polyline points="7,10 12,5 17,10"/>
            <line x1="12" y1="5" x2="12" y2="15"/>
        </symbol>
        
        <symbol id="icon-download" viewBox="0 0 24 24" fill="none" stroke="currentColor" stroke-width="2">
            <path d="M21 15v4a2 2 0 0 1-2 2H5a2 2 0 0 1-2-2v-4"/>
            <polyline points="7,10 12,15 17,10"/>
            <line x1="12" y1="15" x2="12" y2="3"/>
        </symbol>
        
        <symbol id="icon-share" viewBox="0 0 24 24" fill="none" stroke="currentColor" stroke-width="2">
            <circle cx="18" cy="5" r="3"/>
            <circle cx="6" cy="12" r="3"/>
            <circle cx="18" cy="19" r="3"/>
            <line x1="8.59" y1="13.51" x2="15.42" y2="17.49"/>
            <line x1="15.41" y1="6.51" x2="8.59" y2="10.49"/>
        </symbol>
        
        <symbol id="icon-delete" viewBox="0 0 24 24" fill="none" stroke="currentColor" stroke-width="2">
            <polyline points="3,6 5,6 21,6"/>
            <path d="M19,6v14a2,2 0 0,1-2,2H7a2,2 0 0,1-2-2V6m3,0V4a2,2 0 0,1 2-2h4a2,2 0 0,1 2,2v2"/>
            <line x1="10" y1="11" x2="10" y2="17"/>
            <line x1="14" y1="11" x2="14" y2="17"/>
        </symbol>
        
        <symbol id="icon-edit" viewBox="0 0 24 24" fill="none" stroke="currentColor" stroke-width="2">
            <path d="M17 3a2.828 2.828 0 1 1 4 4L7.5 20.5 2 22l1.5-5.5L17 3z"/>
        </symbol>
        
        <!-- Ícones de Interface -->
        <symbol id="icon-search" viewBox="0 0 24 24" fill="none" stroke="currentColor" stroke-width="2">
            <circle cx="11" cy="11" r="8"/>
            <path d="m21 21-4.35-4.35"/>
        </symbol>
        
        <symbol id="icon-filter" viewBox="0 0 24 24" fill="none" stroke="currentColor" stroke-width="2">
            <polygon points="22,3 2,3 10,12.46 10,19 14,21 14,12.46"/>
        </symbol>
        
        <symbol id="icon-sort" viewBox="0 0 24 24" fill="none" stroke="currentColor" stroke-width="2">
            <path d="M3 6h18"/>
            <path d="M7 12h10"/>
            <path d="M10 18h4"/>
        </symbol>
        
        <symbol id="icon-settings" viewBox="0 0 24 24" fill="none" stroke="currentColor" stroke-width="2">
            <circle cx="12" cy="12" r="3"/>
            <path d="M19.4 15a1.65 1.65 0 0 0 .33 1.82l.06.06a2 2 0 0 1 0 2.83 2 2 0 0 1-2.83 0l-.06-.06a1.65 1.65 0 0 0-1.82-.33 1.65 1.65 0 0 0-1 1.51V21a2 2 0 0 1-2 2 2 2 0 0 1-2-2v-.09A1.65 1.65 0 0 0 9 19.4a1.65 1.65 0 0 0-1.82.33l-.06.06a2 2 0 0 1-2.83 0 2 2 0 0 1 0-2.83l.06-.06a1.65 1.65 0 0 0 .33-1.82 1.65 1.65 0 0 0-1.51-1H3a2 2 0 0 1-2-2 2 2 0 0 1 2-2h.09A1.65 1.65 0 0 0 4.6 9a1.65 1.65 0 0 0-.33-1.82l-.06-.06a2 2 0 0 1 0-2.83 2 2 0 0 1 2.83 0l.06.06a1.65 1.65 0 0 0 1.82.33H9a1.65 1.65 0 0 0 1 1.51V3a2 2 0 0 1 2-2 2 2 0 0 1 2 2v.09a1.65 1.65 0 0 0 1 1.51 1.65 1.65 0 0 0 1.82-.33l.06-.06a2 2 0 0 1 2.83 0 2 2 0 0 1 0 2.83l-.06.06a1.65 1.65 0 0 0-.33 1.82V9a1.65 1.65 0 0 0 1.51 1H21a2 2 0 0 1 2 2 2 2 0 0 1-2 2h-.09a1.65 1.65 0 0 0-1.51 1z"/>
        </symbol>
        
        <symbol id="icon-help" viewBox="0 0 24 24" fill="none" stroke="currentColor" stroke-width="2">
            <circle cx="12" cy="12" r="10"/>
            <path d="M9.09 9a3 3 0 0 1 5.83 1c0 2-3 3-3 3"/>
            <point cx="12" cy="17"/>
        </symbol>
        
        <!-- Ícones de Usuário -->
        <symbol id="icon-user" viewBox="0 0 24 24" fill="none" stroke="currentColor" stroke-width="2">
            <path d="M20 21v-2a4 4 0 0 0-4-4H8a4 4 0 0 0-4 4v2"/>
            <circle cx="12" cy="7" r="4"/>
        </symbol>
        
        <symbol id="icon-login" viewBox="0 0 24 24" fill="none" stroke="currentColor" stroke-width="2">
            <path d="M15 3h4a2 2 0 0 1 2 2v14a2 2 0 0 1-2 2h-4"/>
            <polyline points="10,17 15,12 10,7"/>
            <line x1="15" y1="12" x2="3" y2="12"/>
        </symbol>
        
        <symbol id="icon-logout" viewBox="0 0 24 24" fill="none" stroke="currentColor" stroke-width="2">
            <path d="M9 21H5a2 2 0 0 1-2-2V5a2 2 0 0 1 2-2h4"/>
            <polyline points="16,17 21,12 16,7"/>
            <line x1="21" y1="12" x2="9" y2="12"/>
        </symbol>
        
        <symbol id="icon-admin" viewBox="0 0 24 24" fill="none" stroke="currentColor" stroke-width="2">
            <path d="M12 22s8-4 8-10V5l-8-3-8 3v7c0 6 8 10 8 10z"/>
            <path d="M9 12l2 2 4-4"/>
        </symbol>
        
        <!-- Ícones de Arquivo -->
        <symbol id="icon-file" viewBox="0 0 24 24" fill="none" stroke="currentColor" stroke-width="2">
            <path d="M13 2H6a2 2 0 0 0-2 2v16a2 2 0 0 0 2 2h12a2 2 0 0 0 2-2V9z"/>
            <polyline points="13,2 13,9 20,9"/>
        </symbol>
        
        <symbol id="icon-folder" viewBox="0 0 24 24" fill="none" stroke="currentColor" stroke-width="2">
            <path d="M22 19a2 2 0 0 1-2 2H4a2 2 0 0 1-2-2V5a2 2 0 0 1 2-2h5l2 3h9a2 2 0 0 1 2 2z"/>
        </symbol>
        
        <symbol id="icon-image" viewBox="0 0 24 24" fill="none" stroke="currentColor" stroke-width="2">
            <rect x="3" y="3" width="18" height="18" rx="2" ry="2"/>
            <circle cx="8.5" cy="8.5" r="1.5"/>
            <polyline points="21,15 16,10 5,21"/>
        </symbol>
        
        <symbol id="icon-video" viewBox="0 0 24 24" fill="none" stroke="currentColor" stroke-width="2">
            <rect x="2" y="3" width="20" height="14" rx="2" ry="2"/>
            <line x1="8" y1="21" x2="16" y2="21"/>
            <line x1="12" y1="17" x2="12" y2="21"/>
        </symbol>
        
        <symbol id="icon-audio" viewBox="0 0 24 24" fill="none" stroke="currentColor" stroke-width="2">
            <path d="M9 18V5l12-2v13"/>
            <circle cx="6" cy="18" r="3"/>
            <circle cx="18" cy="16" r="3"/>
        </symbol>
        
        <!-- Ícones de Status -->
        <symbol id="icon-success" viewBox="0 0 24 24" fill="none" stroke="currentColor" stroke-width="2">
            <path d="M22 11.08V12a10 10 0 1 1-5.93-9.14"/>
            <polyline points="22,4 12,14.01 9,11.01"/>
        </symbol>
        
        <symbol id="icon-error" viewBox="0 0 24 24" fill="none" stroke="currentColor" stroke-width="2">
            <circle cx="12" cy="12" r="10"/>
            <line x1="15" y1="9" x2="9" y2="15"/>
            <line x1="9" y1="9" x2="15" y2="15"/>
        </symbol>
        
        <symbol id="icon-warning" viewBox="0 0 24 24" fill="none" stroke="currentColor" stroke-width="2">
            <path d="M10.29 3.86L1.82 18a2 2 0 0 0 1.71 3h16.94a2 2 0 0 0 1.71-3L13.71 3.86a2 2 0 0 0-3.42 0z"/>
            <line x1="12" y1="9" x2="12" y2="13"/>
            <line x1="12" y1="17" x2="12.01" y2="17"/>
        </symbol>
        
        <symbol id="icon-info" viewBox="0 0 24 24" fill="none" stroke="currentColor" stroke-width="2">
            <circle cx="12" cy="12" r="10"/>
            <line x1="12" y1="16" x2="12" y2="12"/>
            <line x1="12" y1="8" x2="12.01" y2="8"/>
        </symbol>
        
        <!-- Ícones de Playlist -->
        <symbol id="icon-playlist" viewBox="0 0 24 24" fill="none" stroke="currentColor" stroke-width="2">
            <line x1="8" y1="6" x2="21" y2="6"/>
            <line x1="8" y1="12" x2="21" y2="12"/>
            <line x1="8" y1="18" x2="21" y2="18"/>
            <line x1="3" y1="6" x2="3.01" y2="6"/>
            <line x1="3" y1="12" x2="3.01" y2="12"/>
            <line x1="3" y1="18" x2="3.01" y2="18"/>
        </symbol>
        
        <symbol id="icon-playlist-add" viewBox="0 0 24 24" fill="none" stroke="currentColor" stroke-width="2">
            <line x1="8" y1="6" x2="21" y2="6"/>
            <line x1="8" y1="12" x2="21" y2="12"/>
            <line x1="8" y1="18" x2="21" y2="18"/>
            <line x1="3" y1="6" x2="3.01" y2="6"/>
            <line x1="3" y1="12" x2="3.01" y2="12"/>
            <line x1="3" y1="18" x2="3.01" y2="18"/>
            <line x1="12" y1="21" x2="12" y2="15"/>
            <line x1="9" y1="18" x2="15" y2="18"/>
        </symbol>
        
        <!-- Ícones de Rede -->
        <symbol id="icon-wifi" viewBox="0 0 24 24" fill="none" stroke="currentColor" stroke-width="2">
            <path d="M5 12.55a11 11 0 0 1 14.08 0"/>
            <path d="M1.42 9a16 16 0 0 1 21.16 0"/>
            <path d="M8.53 16.11a6 6 0 0 1 6.95 0"/>
            <line x1="12" y1="20" x2="12.01" y2="20"/>
        </symbol>
        
        <symbol id="icon-cloud" viewBox="0 0 24 24" fill="none" stroke="currentColor" stroke-width="2">
            <path d="M18 10h-1.26A8 8 0 1 0 9 20h9a5 5 0 0 0 0-10z"/>
        </symbol>
        
        <!-- Ícones de Tema -->
        <symbol id="icon-sun" viewBox="0 0 24 24" fill="none" stroke="currentColor" stroke-width="2">
            <circle cx="12" cy="12" r="5"/>
            <line x1="12" y1="1" x2="12" y2="3"/>
            <line x1="12" y1="21" x2="12" y2="23"/>
            <line x1="4.22" y1="4.22" x2="5.64" y2="5.64"/>
            <line x1="18.36" y1="18.36" x2="19.78" y2="19.78"/>
            <line x1="1" y1="12" x2="3" y2="12"/>
            <line x1="21" y1="12" x2="23" y2="12"/>
            <line x1="4.22" y1="19.78" x2="5.64" y2="18.36"/>
            <line x1="18.36" y1="5.64" x2="19.78" y2="4.22"/>
        </symbol>
        
        <symbol id="icon-moon" viewBox="0 0 24 24" fill="none" stroke="currentColor" stroke-width="2">
            <path d="M21 12.79A9 9 0 1 1 11.21 3 7 7 0 0 0 21 12.79z"/>
        </symbol>
    </defs>
</svg>
